<?xml version="1.0" encoding="utf-8" standalone="no"?>
<!DOCTYPE svg PUBLIC "-//W3C//DTD SVG 1.1//EN"
  "http://www.w3.org/Graphics/SVG/1.1/DTD/svg11.dtd">
<svg xmlns:xlink="http://www.w3.org/1999/xlink" width="340.15748pt" height="136.062992pt" viewBox="0 0 340.15748 136.062992" xmlns="http://www.w3.org/2000/svg" version="1.1">
 <metadata>
  <rdf:RDF xmlns:dc="http://purl.org/dc/elements/1.1/" xmlns:cc="http://creativecommons.org/ns#" xmlns:rdf="http://www.w3.org/1999/02/22-rdf-syntax-ns#">
   <cc:Work>
    <dc:type rdf:resource="http://purl.org/dc/dcmitype/StillImage"/>
    <dc:date>2025-09-24T13:59:09.036120</dc:date>
    <dc:format>image/svg+xml</dc:format>
    <dc:creator>
     <cc:Agent>
      <dc:title>Matplotlib v3.10.5, https://matplotlib.org/</dc:title>
     </cc:Agent>
    </dc:creator>
   </cc:Work>
  </rdf:RDF>
 </metadata>
 <defs>
  <style type="text/css">*{stroke-linejoin: round; stroke-linecap: butt}</style>
 </defs>
 <g id="figure_1">
  <g id="patch_1">
   <path d="M 0 136.062992 
L 340.15748 136.062992 
L 340.15748 0 
L 0 0 
z
" style="fill: #ffffff"/>
  </g>
  <g id="axes_1">
   <g id="patch_2">
    <path d="M 51.023622 115.653543 
L 306.141732 115.653543 
L 306.141732 16.327559 
L 51.023622 16.327559 
z
" style="fill: #ffffff"/>
   </g>
   <g id="matplotlib.axis_1">
    <g id="text_1">
     <!-- Tid -->
     <g transform="translate(170.713558 127.26389) scale(0.11 -0.11)">
      <defs>
       <path id="CMSS17-54" d="M 2317 3968 
L 2848 3968 
C 2925 3968 3002 3968 3078 3968 
L 3878 3968 
L 3878 4376 
L 218 4376 
L 218 3968 
L 1018 3968 
C 1094 3968 1171 3968 1248 3968 
L 1779 3968 
L 1779 -32 
L 2317 -32 
L 2317 3968 
z
" transform="scale(0.015625)"/>
       <path id="CMSS17-69" d="M 979 4183 
L 442 4183 
L 442 3648 
L 979 3648 
L 979 4183 
z
M 947 2739 
L 474 2739 
L 474 0 
L 947 0 
L 947 2739 
z
" transform="scale(0.015625)"/>
       <path id="CMSS17-64" d="M 2611 4416 
L 2138 4416 
L 2138 2438 
C 1939 2603 1613 2756 1254 2756 
C 672 2756 211 2131 211 1347 
C 211 562 666 -64 1235 -64 
C 1677 -64 1971 172 2125 306 
L 2125 -13 
L 2611 -13 
L 2611 4416 
z
M 2125 836 
C 2125 747 2125 653 1926 482 
C 1798 375 1645 325 1498 325 
C 1152 325 698 576 698 1340 
C 698 2134 1210 2368 1562 2368 
C 1798 2368 1990 2254 2125 2065 
L 2125 836 
z
" transform="scale(0.015625)"/>
      </defs>
      <use xlink:href="#CMSS17-54" transform="scale(0.996264)"/>
      <use xlink:href="#CMSS17-69" transform="translate(63.819454 0) scale(0.996264)"/>
      <use xlink:href="#CMSS17-64" transform="translate(86.000177 0) scale(0.996264)"/>
     </g>
    </g>
   </g>
   <g id="matplotlib.axis_2">
    <g id="text_2">
     <!-- Eksitation -->
     <g transform="translate(44.892727 88.821637) rotate(-90) scale(0.11 -0.11)">
      <defs>
       <path id="CMSS17-45" d="M 1958 433 
C 1446 433 1216 433 1101 433 
L 1101 2107 
L 3085 2107 
L 3085 2496 
L 1101 2496 
L 1101 4009 
L 1926 4009 
C 2003 4009 2080 4009 2157 4009 
L 3251 4009 
L 3251 4416 
L 563 4416 
L 563 0 
L 3334 0 
L 3334 433 
L 1958 433 
z
" transform="scale(0.015625)"/>
       <path id="CMSS17-6b" d="M 1696 1688 
L 2688 2739 
L 2074 2739 
L 954 1554 
L 954 4416 
L 480 4416 
L 480 0 
L 947 0 
L 947 892 
L 1376 1344 
L 2278 0 
L 2822 0 
L 1696 1688 
z
" transform="scale(0.015625)"/>
       <path id="CMSS17-73" d="M 2061 2627 
C 1683 2807 1389 2807 1197 2807 
C 742 2807 198 2648 198 2003 
C 198 1359 902 1218 1094 1179 
C 1389 1122 1715 1058 1715 740 
C 1715 337 1254 337 1171 337 
C 915 337 563 407 243 638 
L 166 210 
C 531 0 883 -64 1178 -64 
C 1965 -64 2163 416 2163 781 
C 2163 1094 1984 1305 1862 1401 
C 1651 1568 1574 1587 1050 1696 
C 960 1709 646 1779 646 2066 
C 646 2432 1050 2432 1139 2432 
C 1555 2432 1811 2303 1984 2208 
L 2061 2627 
z
" transform="scale(0.015625)"/>
       <path id="CMSS17-74" d="M 1069 2368 
L 1901 2368 
L 1901 2737 
L 1069 2737 
L 1069 3520 
L 614 3520 
L 614 2737 
L 109 2737 
L 109 2368 
L 602 2368 
L 602 749 
C 602 384 685 -64 1107 -64 
C 1427 -64 1722 25 2003 172 
L 1901 548 
C 1747 414 1562 337 1363 337 
C 1082 337 1069 696 1069 856 
L 1069 2368 
z
" transform="scale(0.015625)"/>
       <path id="CMSS17-61" d="M 2406 1791 
C 2406 2392 1978 2808 1402 2808 
C 1120 2808 813 2757 461 2553 
L 499 2135 
C 659 2248 934 2432 1395 2432 
C 1722 2432 1920 2180 1920 1782 
L 1920 1536 
C 896 1536 256 1238 256 726 
C 256 461 416 -64 947 -64 
C 1043 -64 1562 -64 1933 217 
L 1933 -19 
L 2406 -19 
L 2406 1791 
z
M 1920 816 
C 1920 701 1920 548 1728 434 
C 1562 325 1350 325 1261 325 
C 941 325 723 511 723 744 
C 723 1211 1722 1211 1920 1211 
L 1920 816 
z
" transform="scale(0.015625)"/>
       <path id="CMSS17-6f" d="M 2829 1356 
C 2829 2176 2221 2816 1504 2816 
C 768 2816 173 2157 173 1356 
C 173 544 787 -64 1498 -64 
C 2227 -64 2829 563 2829 1356 
z
M 1504 337 
C 1050 337 659 709 659 1408 
C 659 2151 1114 2427 1498 2427 
C 1914 2427 2342 2126 2342 1408 
C 2342 683 1926 337 1504 337 
z
" transform="scale(0.015625)"/>
       <path id="CMSS17-6e" d="M 2618 1877 
C 2618 2283 2522 2816 1798 2816 
C 1389 2816 1120 2606 941 2389 
L 941 2758 
L 474 2758 
L 474 0 
L 960 0 
L 960 1559 
C 960 1964 1114 2428 1549 2428 
C 2112 2428 2131 2048 2131 1829 
L 2131 0 
L 2618 0 
L 2618 1877 
z
" transform="scale(0.015625)"/>
      </defs>
      <use xlink:href="#CMSS17-45" transform="scale(0.996264)"/>
      <use xlink:href="#CMSS17-6b" transform="translate(55.892013 0) scale(0.996264)"/>
      <use xlink:href="#CMSS17-73" transform="translate(101.494502 0) scale(0.996264)"/>
      <use xlink:href="#CMSS17-69" transform="translate(137.408044 0) scale(0.996264)"/>
      <use xlink:href="#CMSS17-74" transform="translate(159.588767 0) scale(0.996264)"/>
      <use xlink:href="#CMSS17-61" transform="translate(193.420334 0) scale(0.996264)"/>
      <use xlink:href="#CMSS17-74" transform="translate(238.342255 0) scale(0.996264)"/>
      <use xlink:href="#CMSS17-69" transform="translate(272.173821 0) scale(0.996264)"/>
      <use xlink:href="#CMSS17-6f" transform="translate(294.354544 0) scale(0.996264)"/>
      <use xlink:href="#CMSS17-6e" transform="translate(341.198168 0) scale(0.996264)"/>
     </g>
    </g>
   </g>
   <g id="line2d_1">
    <path d="M 62.6199 108.443312 
L 65.375738 108.443312 
L 65.520782 111.138726 
L 68.276621 111.138726 
L 68.421665 106.197135 
L 71.177503 106.197135 
L 71.322547 108.892548 
L 74.078386 108.892548 
L 74.22343 103.950957 
L 76.979268 103.950957 
L 77.124312 106.64637 
L 79.880151 106.64637 
L 80.025195 101.704779 
L 82.781033 101.704779 
L 82.926077 104.400192 
L 85.681916 104.400192 
L 85.82696 99.458601 
L 88.582798 99.458601 
L 88.727842 102.154014 
L 91.483681 102.154014 
L 91.628725 97.212423 
L 94.384563 97.212423 
L 94.529607 99.907837 
L 97.285445 99.907837 
L 97.43049 94.966245 
L 100.186328 94.966245 
L 100.331372 97.661659 
L 103.08721 97.661659 
L 103.232255 92.720068 
L 105.988093 92.720068 
L 106.133137 95.415481 
L 108.888975 95.415481 
L 109.03402 90.47389 
L 111.789858 90.47389 
L 111.934902 93.169303 
L 114.69074 93.169303 
L 114.835785 88.227712 
L 117.591623 88.227712 
L 117.736667 90.923125 
L 120.492505 90.923125 
L 120.63755 85.981534 
L 123.393388 85.981534 
L 123.538432 88.676947 
L 126.29427 88.676947 
L 126.439314 83.735356 
L 129.195153 83.735356 
L 129.340197 86.43077 
L 132.096035 86.43077 
L 132.241079 81.489178 
L 134.996918 81.489178 
L 135.141962 84.184592 
L 137.8978 84.184592 
L 138.042844 79.243 
L 140.798683 79.243 
L 140.943727 81.938414 
L 143.699565 81.938414 
L 143.844609 76.996823 
L 146.600448 76.996823 
L 146.745492 79.692236 
L 149.50133 79.692236 
L 149.646374 74.750645 
L 152.402213 74.750645 
L 152.547257 77.446058 
L 155.303095 77.446058 
L 155.448139 72.504467 
L 158.203978 72.504467 
L 158.349022 75.19988 
L 161.10486 75.19988 
L 161.249904 70.258289 
L 164.005743 70.258289 
L 164.150787 72.953702 
L 166.906625 72.953702 
L 167.051669 68.012111 
L 169.807508 68.012111 
L 169.952552 70.707525 
L 172.70839 70.707525 
L 172.853434 65.765933 
L 175.609273 65.765933 
L 175.754317 68.461347 
L 178.510155 68.461347 
L 178.655199 63.519756 
L 181.411038 63.519756 
L 181.556082 66.215169 
L 184.31192 66.215169 
L 184.456964 61.273578 
L 187.212803 61.273578 
L 187.357847 63.968991 
L 190.113685 63.968991 
L 190.258729 59.0274 
L 193.014568 59.0274 
L 193.159612 61.722813 
L 195.91545 61.722813 
L 196.060494 56.781222 
L 198.816333 56.781222 
L 198.961377 59.476635 
L 201.717215 59.476635 
L 201.862259 54.535044 
L 204.618097 54.535044 
L 204.763142 57.230458 
L 207.51898 57.230458 
L 207.664024 52.288866 
L 210.419862 52.288866 
L 210.564907 54.98428 
L 213.320745 54.98428 
L 213.465789 50.042688 
L 216.221627 50.042688 
L 216.366672 52.738102 
L 219.12251 52.738102 
L 219.267554 47.796511 
L 222.023392 47.796511 
L 222.168437 50.491924 
L 224.924275 50.491924 
L 225.069319 45.550333 
L 227.825157 45.550333 
L 227.970201 48.245746 
L 230.72604 48.245746 
L 230.871084 43.304155 
L 233.626922 43.304155 
L 233.771966 45.999568 
L 236.527805 45.999568 
L 236.672849 41.057977 
L 239.428687 41.057977 
L 239.573731 43.753391 
L 242.32957 43.753391 
L 242.474614 38.811799 
L 245.230452 38.811799 
L 245.375496 41.507213 
L 248.131335 41.507213 
L 248.276379 36.565621 
L 251.032217 36.565621 
L 251.177261 39.261035 
L 253.9331 39.261035 
L 254.078144 34.319444 
L 256.833982 34.319444 
L 256.979026 37.014857 
L 259.734865 37.014857 
L 259.879909 32.073266 
L 262.635747 32.073266 
L 262.780791 34.768679 
L 265.53663 34.768679 
L 265.681674 29.827088 
L 268.437512 29.827088 
L 268.582556 32.522501 
L 271.338395 32.522501 
L 271.483439 27.58091 
L 274.239277 27.58091 
L 274.384321 30.276323 
L 277.14016 30.276323 
L 277.285204 25.334732 
L 280.041042 25.334732 
L 280.186086 28.030146 
L 282.941925 28.030146 
L 283.086969 23.088554 
L 285.842807 23.088554 
L 285.987851 25.783968 
L 288.74369 25.783968 
L 288.888734 20.842377 
L 291.644572 20.842377 
L 291.789616 23.53779 
L 294.545455 23.53779 
L 294.545455 23.53779 
" clip-path="url(#p849d476db9)" style="fill: none; stroke: #0000ff; stroke-width: 1.5; stroke-linecap: square"/>
   </g>
   <g id="line2d_2">
    <path d="M 62.6199 111.138726 
L 294.545455 20.842377 
" clip-path="url(#p849d476db9)" style="fill: none; stroke: #ff0000; stroke-width: 1.5; stroke-linecap: square"/>
   </g>
   <g id="patch_3">
    <path d="M 51.023622 115.653543 
L 51.023622 16.327559 
" style="fill: none; stroke: #000000; stroke-width: 0.8; stroke-linejoin: miter; stroke-linecap: square"/>
   </g>
   <g id="patch_4">
    <path d="M 306.141732 115.653543 
L 306.141732 16.327559 
" style="fill: none; stroke: #000000; stroke-width: 0.8; stroke-linejoin: miter; stroke-linecap: square"/>
   </g>
   <g id="patch_5">
    <path d="M 51.023622 115.653543 
L 306.141732 115.653543 
" style="fill: none; stroke: #000000; stroke-width: 0.8; stroke-linejoin: miter; stroke-linecap: square"/>
   </g>
   <g id="patch_6">
    <path d="M 51.023622 16.327559 
L 306.141732 16.327559 
" style="fill: none; stroke: #000000; stroke-width: 0.8; stroke-linejoin: miter; stroke-linecap: square"/>
   </g>
  </g>
 </g>
 <defs>
  <clipPath id="p849d476db9">
   <rect x="51.023622" y="16.327559" width="255.11811" height="99.325984"/>
  </clipPath>
 </defs>
</svg>
