<?xml version="1.0" encoding="utf-8" standalone="no"?>
<!DOCTYPE svg PUBLIC "-//W3C//DTD SVG 1.1//EN"
  "http://www.w3.org/Graphics/SVG/1.1/DTD/svg11.dtd">
<svg xmlns:xlink="http://www.w3.org/1999/xlink" width="340.15748pt" height="136.062992pt" viewBox="0 0 340.15748 136.062992" xmlns="http://www.w3.org/2000/svg" version="1.1">
 <metadata>
  <rdf:RDF xmlns:dc="http://purl.org/dc/elements/1.1/" xmlns:cc="http://creativecommons.org/ns#" xmlns:rdf="http://www.w3.org/1999/02/22-rdf-syntax-ns#">
   <cc:Work>
    <dc:type rdf:resource="http://purl.org/dc/dcmitype/StillImage"/>
    <dc:date>2025-09-24T13:58:45.770616</dc:date>
    <dc:format>image/svg+xml</dc:format>
    <dc:creator>
     <cc:Agent>
      <dc:title>Matplotlib v3.10.5, https://matplotlib.org/</dc:title>
     </cc:Agent>
    </dc:creator>
   </cc:Work>
  </rdf:RDF>
 </metadata>
 <defs>
  <style type="text/css">*{stroke-linejoin: round; stroke-linecap: butt}</style>
 </defs>
 <g id="figure_1">
  <g id="patch_1">
   <path d="M 0 136.062992 
L 340.15748 136.062992 
L 340.15748 0 
L 0 0 
z
" style="fill: #ffffff"/>
  </g>
  <g id="axes_1">
   <g id="patch_2">
    <path d="M 51.023622 115.653543 
L 306.141732 115.653543 
L 306.141732 16.327559 
L 51.023622 16.327559 
z
" style="fill: #ffffff"/>
   </g>
   <g id="matplotlib.axis_1">
    <g id="text_1">
     <!-- Tid -->
     <g transform="translate(170.713558 127.26389) scale(0.11 -0.11)">
      <defs>
       <path id="CMSS17-54" d="M 2317 3968 
L 2848 3968 
C 2925 3968 3002 3968 3078 3968 
L 3878 3968 
L 3878 4376 
L 218 4376 
L 218 3968 
L 1018 3968 
C 1094 3968 1171 3968 1248 3968 
L 1779 3968 
L 1779 -32 
L 2317 -32 
L 2317 3968 
z
" transform="scale(0.015625)"/>
       <path id="CMSS17-69" d="M 979 4183 
L 442 4183 
L 442 3648 
L 979 3648 
L 979 4183 
z
M 947 2739 
L 474 2739 
L 474 0 
L 947 0 
L 947 2739 
z
" transform="scale(0.015625)"/>
       <path id="CMSS17-64" d="M 2611 4416 
L 2138 4416 
L 2138 2438 
C 1939 2603 1613 2756 1254 2756 
C 672 2756 211 2131 211 1347 
C 211 562 666 -64 1235 -64 
C 1677 -64 1971 172 2125 306 
L 2125 -13 
L 2611 -13 
L 2611 4416 
z
M 2125 836 
C 2125 747 2125 653 1926 482 
C 1798 375 1645 325 1498 325 
C 1152 325 698 576 698 1340 
C 698 2134 1210 2368 1562 2368 
C 1798 2368 1990 2254 2125 2065 
L 2125 836 
z
" transform="scale(0.015625)"/>
      </defs>
      <use xlink:href="#CMSS17-54" transform="scale(0.996264)"/>
      <use xlink:href="#CMSS17-69" transform="translate(63.819454 0) scale(0.996264)"/>
      <use xlink:href="#CMSS17-64" transform="translate(86.000177 0) scale(0.996264)"/>
     </g>
    </g>
   </g>
   <g id="matplotlib.axis_2">
    <g id="text_2">
     <!-- Eksitation -->
     <g transform="translate(44.892727 88.821637) rotate(-90) scale(0.11 -0.11)">
      <defs>
       <path id="CMSS17-45" d="M 1958 433 
C 1446 433 1216 433 1101 433 
L 1101 2107 
L 3085 2107 
L 3085 2496 
L 1101 2496 
L 1101 4009 
L 1926 4009 
C 2003 4009 2080 4009 2157 4009 
L 3251 4009 
L 3251 4416 
L 563 4416 
L 563 0 
L 3334 0 
L 3334 433 
L 1958 433 
z
" transform="scale(0.015625)"/>
       <path id="CMSS17-6b" d="M 1696 1688 
L 2688 2739 
L 2074 2739 
L 954 1554 
L 954 4416 
L 480 4416 
L 480 0 
L 947 0 
L 947 892 
L 1376 1344 
L 2278 0 
L 2822 0 
L 1696 1688 
z
" transform="scale(0.015625)"/>
       <path id="CMSS17-73" d="M 2061 2627 
C 1683 2807 1389 2807 1197 2807 
C 742 2807 198 2648 198 2003 
C 198 1359 902 1218 1094 1179 
C 1389 1122 1715 1058 1715 740 
C 1715 337 1254 337 1171 337 
C 915 337 563 407 243 638 
L 166 210 
C 531 0 883 -64 1178 -64 
C 1965 -64 2163 416 2163 781 
C 2163 1094 1984 1305 1862 1401 
C 1651 1568 1574 1587 1050 1696 
C 960 1709 646 1779 646 2066 
C 646 2432 1050 2432 1139 2432 
C 1555 2432 1811 2303 1984 2208 
L 2061 2627 
z
" transform="scale(0.015625)"/>
       <path id="CMSS17-74" d="M 1069 2368 
L 1901 2368 
L 1901 2737 
L 1069 2737 
L 1069 3520 
L 614 3520 
L 614 2737 
L 109 2737 
L 109 2368 
L 602 2368 
L 602 749 
C 602 384 685 -64 1107 -64 
C 1427 -64 1722 25 2003 172 
L 1901 548 
C 1747 414 1562 337 1363 337 
C 1082 337 1069 696 1069 856 
L 1069 2368 
z
" transform="scale(0.015625)"/>
       <path id="CMSS17-61" d="M 2406 1791 
C 2406 2392 1978 2808 1402 2808 
C 1120 2808 813 2757 461 2553 
L 499 2135 
C 659 2248 934 2432 1395 2432 
C 1722 2432 1920 2180 1920 1782 
L 1920 1536 
C 896 1536 256 1238 256 726 
C 256 461 416 -64 947 -64 
C 1043 -64 1562 -64 1933 217 
L 1933 -19 
L 2406 -19 
L 2406 1791 
z
M 1920 816 
C 1920 701 1920 548 1728 434 
C 1562 325 1350 325 1261 325 
C 941 325 723 511 723 744 
C 723 1211 1722 1211 1920 1211 
L 1920 816 
z
" transform="scale(0.015625)"/>
       <path id="CMSS17-6f" d="M 2829 1356 
C 2829 2176 2221 2816 1504 2816 
C 768 2816 173 2157 173 1356 
C 173 544 787 -64 1498 -64 
C 2227 -64 2829 563 2829 1356 
z
M 1504 337 
C 1050 337 659 709 659 1408 
C 659 2151 1114 2427 1498 2427 
C 1914 2427 2342 2126 2342 1408 
C 2342 683 1926 337 1504 337 
z
" transform="scale(0.015625)"/>
       <path id="CMSS17-6e" d="M 2618 1877 
C 2618 2283 2522 2816 1798 2816 
C 1389 2816 1120 2606 941 2389 
L 941 2758 
L 474 2758 
L 474 0 
L 960 0 
L 960 1559 
C 960 1964 1114 2428 1549 2428 
C 2112 2428 2131 2048 2131 1829 
L 2131 0 
L 2618 0 
L 2618 1877 
z
" transform="scale(0.015625)"/>
      </defs>
      <use xlink:href="#CMSS17-45" transform="scale(0.996264)"/>
      <use xlink:href="#CMSS17-6b" transform="translate(55.892013 0) scale(0.996264)"/>
      <use xlink:href="#CMSS17-73" transform="translate(101.494502 0) scale(0.996264)"/>
      <use xlink:href="#CMSS17-69" transform="translate(137.408044 0) scale(0.996264)"/>
      <use xlink:href="#CMSS17-74" transform="translate(159.588767 0) scale(0.996264)"/>
      <use xlink:href="#CMSS17-61" transform="translate(193.420334 0) scale(0.996264)"/>
      <use xlink:href="#CMSS17-74" transform="translate(238.342255 0) scale(0.996264)"/>
      <use xlink:href="#CMSS17-69" transform="translate(272.173821 0) scale(0.996264)"/>
      <use xlink:href="#CMSS17-6f" transform="translate(294.354544 0) scale(0.996264)"/>
      <use xlink:href="#CMSS17-6e" transform="translate(341.198168 0) scale(0.996264)"/>
     </g>
    </g>
   </g>
   <g id="line2d_1">
    <path d="M 62.6199 110.90838 
L 63.000313 110.678755 
L 63.242395 110.809934 
L 63.749613 111.134686 
L 64.003222 110.972743 
L 64.46433 110.680484 
L 64.717939 110.834877 
L 65.190574 111.135987 
L 65.444183 110.980046 
L 65.916819 110.681079 
L 66.170428 110.838558 
L 66.631535 111.137037 
L 66.873617 110.997988 
L 67.369307 110.681739 
L 67.622916 110.842258 
L 68.084024 111.136536 
L 68.337633 110.98362 
L 68.406799 110.915921 
L 68.522076 108.504708 
L 68.821796 108.378243 
L 69.075405 108.538682 
L 69.536513 108.833072 
L 69.790122 108.680238 
L 70.262757 108.377005 
L 70.516366 108.531398 
L 70.989001 108.832509 
L 71.24261 108.676568 
L 71.715246 108.377601 
L 71.968855 108.535079 
L 72.429962 108.833559 
L 72.672044 108.694509 
L 73.167734 108.378261 
L 73.421343 108.53878 
L 73.882451 108.833058 
L 74.13606 108.680142 
L 74.205226 108.612442 
L 74.320503 106.20123 
L 74.620223 106.074764 
L 74.873832 106.235204 
L 75.33494 106.529594 
L 75.588549 106.37676 
L 76.061184 106.073527 
L 76.314793 106.22792 
L 76.787428 106.52903 
L 77.041037 106.373089 
L 77.513673 106.074123 
L 77.767282 106.231601 
L 78.228389 106.53008 
L 78.470471 106.391031 
L 78.966161 106.074783 
L 79.21977 106.235301 
L 79.680878 106.52958 
L 79.934487 106.376663 
L 80.003653 106.308964 
L 80.11893 103.897752 
L 80.41865 103.771286 
L 80.672259 103.931725 
L 81.133367 104.226115 
L 81.386976 104.073281 
L 81.859611 103.770049 
L 82.11322 103.924441 
L 82.585855 104.225552 
L 82.839465 104.069611 
L 83.3121 103.770644 
L 83.565709 103.928122 
L 84.026816 104.226602 
L 84.268898 104.087552 
L 84.764588 103.771304 
L 85.018198 103.931823 
L 85.479305 104.226101 
L 85.732914 104.073185 
L 85.80208 104.005486 
L 85.917357 101.594273 
L 86.217077 101.467808 
L 86.470686 101.628247 
L 86.931794 101.922637 
L 87.185403 101.769803 
L 87.658038 101.46657 
L 87.911647 101.620963 
L 88.384282 101.922073 
L 88.637892 101.766132 
L 89.110527 101.467166 
L 89.364136 101.624644 
L 89.825243 101.923124 
L 90.067325 101.784074 
L 90.563015 101.467826 
L 90.816625 101.628345 
L 91.277732 101.922623 
L 91.531341 101.769706 
L 91.600507 101.702007 
L 91.715784 99.290795 
L 92.015504 99.164329 
L 92.269113 99.324768 
L 92.730221 99.619158 
L 92.98383 99.466325 
L 93.456465 99.163092 
L 93.710074 99.317485 
L 94.18271 99.618595 
L 94.436319 99.462654 
L 94.908954 99.163687 
L 95.162563 99.321166 
L 95.623671 99.619645 
L 95.865752 99.480596 
L 96.361443 99.164347 
L 96.615052 99.324866 
L 97.076159 99.619144 
L 97.329768 99.466228 
L 97.398934 99.398529 
L 97.514211 96.987316 
L 97.813931 96.860851 
L 98.06754 97.02129 
L 98.528648 97.31568 
L 98.782257 97.162846 
L 99.254892 96.859613 
L 99.508501 97.014006 
L 99.981137 97.315117 
L 100.234746 97.159176 
L 100.707381 96.860209 
L 100.96099 97.017687 
L 101.422098 97.316167 
L 101.664179 97.177117 
L 102.15987 96.860869 
L 102.413479 97.021388 
L 102.874586 97.315666 
L 103.128195 97.16275 
L 103.197362 97.09505 
L 103.312638 94.683838 
L 103.612358 94.557372 
L 103.865967 94.717811 
L 104.327075 95.012202 
L 104.580684 94.859368 
L 105.053319 94.556135 
L 105.306928 94.710528 
L 105.779564 95.011638 
L 106.033173 94.855697 
L 106.505808 94.556731 
L 106.759417 94.714209 
L 107.220525 95.012688 
L 107.462606 94.873639 
L 107.958297 94.557391 
L 108.211906 94.717909 
L 108.673013 95.012188 
L 108.926622 94.859271 
L 108.995789 94.791572 
L 109.111065 92.38036 
L 109.410785 92.253894 
L 109.664394 92.414333 
L 110.125502 92.708723 
L 110.379111 92.555889 
L 110.851746 92.252656 
L 111.105355 92.407049 
L 111.577991 92.70816 
L 111.8316 92.552219 
L 112.304235 92.253252 
L 112.557844 92.41073 
L 113.018952 92.70921 
L 113.261033 92.57016 
L 113.756724 92.253912 
L 114.010333 92.414431 
L 114.47144 92.708709 
L 114.72505 92.555793 
L 114.794216 92.488094 
L 114.909493 90.076881 
L 115.209212 89.950416 
L 115.462822 90.110855 
L 115.923929 90.405245 
L 116.177538 90.252411 
L 116.650173 89.949178 
L 116.903783 90.103571 
L 117.376418 90.404681 
L 117.630027 90.24874 
L 118.102662 89.949774 
L 118.356271 90.107252 
L 118.817379 90.405732 
L 119.05946 90.266682 
L 119.555151 89.950434 
L 119.80876 90.110953 
L 120.269867 90.405231 
L 120.523477 90.252314 
L 120.592643 90.184615 
L 120.70792 87.773403 
L 121.007639 87.646937 
L 121.261249 87.807376 
L 121.722356 88.101766 
L 121.975965 87.948933 
L 122.4486 87.6457 
L 122.70221 87.800093 
L 123.174845 88.101203 
L 123.428454 87.945262 
L 123.901089 87.646295 
L 124.154698 87.803774 
L 124.615806 88.102253 
L 124.857887 87.963204 
L 125.353578 87.646955 
L 125.607187 87.807474 
L 126.068295 88.101752 
L 126.321904 87.948836 
L 126.39107 87.881137 
L 126.506347 85.469924 
L 126.806067 85.343459 
L 127.059676 85.503898 
L 127.520783 85.798288 
L 127.774392 85.645454 
L 128.247028 85.342221 
L 128.500637 85.496614 
L 128.973272 85.797725 
L 129.226881 85.641783 
L 129.699516 85.342817 
L 129.953125 85.500295 
L 130.414233 85.798775 
L 130.656314 85.659725 
L 131.152005 85.343477 
L 131.405614 85.503996 
L 131.866722 85.798274 
L 132.120331 85.645358 
L 132.189497 85.577658 
L 132.304774 83.166446 
L 132.604494 83.03998 
L 132.858103 83.200419 
L 133.31921 83.49481 
L 133.572819 83.341976 
L 134.045455 83.038743 
L 134.299064 83.193136 
L 134.771699 83.494246 
L 135.025308 83.338305 
L 135.497943 83.039339 
L 135.751552 83.196817 
L 136.21266 83.495296 
L 136.454741 83.356247 
L 136.950432 83.039999 
L 137.204041 83.200517 
L 137.665149 83.494796 
L 137.918758 83.341879 
L 137.987924 83.27418 
L 138.103201 80.862968 
L 138.402921 80.736502 
L 138.65653 80.896941 
L 139.117637 81.191331 
L 139.371246 81.038497 
L 139.843882 80.735264 
L 140.097491 80.889657 
L 140.570126 81.190768 
L 140.823735 81.034827 
L 141.29637 80.73586 
L 141.549979 80.893338 
L 142.011087 81.191818 
L 142.253168 81.052768 
L 142.748859 80.73652 
L 143.002468 80.897039 
L 143.463576 81.191317 
L 143.717185 81.038401 
L 143.786351 80.970702 
L 143.901628 78.559489 
L 144.201348 78.433024 
L 144.454957 78.593463 
L 144.916064 78.887853 
L 145.169674 78.735019 
L 145.642309 78.431786 
L 145.895918 78.586179 
L 146.368553 78.887289 
L 146.622162 78.731348 
L 147.094797 78.432382 
L 147.348407 78.58986 
L 147.809514 78.88834 
L 148.051596 78.74929 
L 148.547286 78.433042 
L 148.800895 78.593561 
L 149.262003 78.887839 
L 149.515612 78.734922 
L 149.584778 78.667223 
L 149.700055 76.256011 
L 149.999775 76.129545 
L 150.253384 76.289984 
L 150.714491 76.584374 
L 150.968101 76.431541 
L 151.440736 76.128308 
L 151.694345 76.282701 
L 152.16698 76.583811 
L 152.420589 76.42787 
L 152.893224 76.128903 
L 153.146834 76.286382 
L 153.607941 76.584861 
L 153.850023 76.445812 
L 154.345713 76.129563 
L 154.599322 76.290082 
L 155.06043 76.58436 
L 155.314039 76.431444 
L 155.383205 76.363745 
L 155.498482 73.952532 
L 155.798202 73.826067 
L 156.051811 73.986506 
L 156.512918 74.280896 
L 156.766528 74.128062 
L 157.239163 73.824829 
L 157.492772 73.979222 
L 157.965407 74.280333 
L 158.219016 74.124391 
L 158.691652 73.825425 
L 158.945261 73.982903 
L 159.406368 74.281383 
L 159.64845 74.142333 
L 160.14414 73.826085 
L 160.397749 73.986604 
L 160.858857 74.280882 
L 161.112466 74.127966 
L 161.181632 74.060266 
L 161.296909 71.649054 
L 161.596629 71.522588 
L 161.850238 71.683027 
L 162.311346 71.977418 
L 162.564955 71.824584 
L 163.03759 71.521351 
L 163.291199 71.675744 
L 163.763834 71.976854 
L 164.017443 71.820913 
L 164.490079 71.521947 
L 164.743688 71.679425 
L 165.204795 71.977904 
L 165.446877 71.838855 
L 165.942567 71.522607 
L 166.196176 71.683125 
L 166.657284 71.977404 
L 166.910893 71.824487 
L 166.980059 71.756788 
L 167.095336 69.345576 
L 167.395056 69.21911 
L 167.648665 69.379549 
L 168.109773 69.673939 
L 168.363382 69.521105 
L 168.836017 69.217872 
L 169.089626 69.372265 
L 169.562261 69.673376 
L 169.81587 69.517435 
L 170.288506 69.218468 
L 170.542115 69.375946 
L 171.003222 69.674426 
L 171.245304 69.535376 
L 171.740994 69.219128 
L 171.994603 69.379647 
L 172.455711 69.673925 
L 172.70932 69.521009 
L 172.778486 69.45331 
L 172.893763 67.042097 
L 173.193483 66.915632 
L 173.447092 67.076071 
L 173.9082 67.370461 
L 174.161809 67.217627 
L 174.634444 66.914394 
L 174.888053 67.068787 
L 175.360688 67.369897 
L 175.614298 67.213956 
L 176.086933 66.91499 
L 176.340542 67.072468 
L 176.801649 67.370948 
L 177.043731 67.231898 
L 177.539421 66.91565 
L 177.793031 67.076169 
L 178.254138 67.370447 
L 178.507747 67.21753 
L 178.576913 67.149831 
L 178.69219 64.738619 
L 178.99191 64.612153 
L 179.245519 64.772592 
L 179.706627 65.066982 
L 179.960236 64.914149 
L 180.432871 64.610916 
L 180.68648 64.765309 
L 181.159115 65.066419 
L 181.412725 64.910478 
L 181.88536 64.611511 
L 182.138969 64.76899 
L 182.600076 65.067469 
L 182.842158 64.92842 
L 183.337848 64.612171 
L 183.591458 64.77269 
L 184.052565 65.066968 
L 184.306174 64.914052 
L 184.37534 64.846353 
L 184.490617 62.43514 
L 184.790337 62.308675 
L 185.043946 62.469114 
L 185.505054 62.763504 
L 185.758663 62.61067 
L 186.231298 62.307437 
L 186.484907 62.46183 
L 186.957542 62.76294 
L 187.211152 62.606999 
L 187.683787 62.308033 
L 187.937396 62.465511 
L 188.398503 62.763991 
L 188.640585 62.624941 
L 189.136276 62.308693 
L 189.389885 62.469212 
L 189.850992 62.76349 
L 190.104601 62.610573 
L 190.173767 62.542874 
L 190.289044 60.131662 
L 190.588764 60.005196 
L 190.842373 60.165635 
L 191.303481 60.460026 
L 191.55709 60.307192 
L 192.029725 60.003959 
L 192.283334 60.158352 
L 192.75597 60.459462 
L 193.009579 60.303521 
L 193.482214 60.004555 
L 193.735823 60.162033 
L 194.196931 60.460512 
L 194.439012 60.321463 
L 194.934703 60.005215 
L 195.188312 60.165733 
L 195.649419 60.460012 
L 195.903028 60.307095 
L 195.972195 60.239396 
L 196.087471 57.828184 
L 196.387191 57.701718 
L 196.6408 57.862157 
L 197.101908 58.156547 
L 197.355517 58.003713 
L 197.828152 57.70048 
L 198.081761 57.854873 
L 198.554397 58.155984 
L 198.808006 58.000043 
L 199.280641 57.701076 
L 199.53425 57.858554 
L 199.995358 58.157034 
L 200.237439 58.017984 
L 200.73313 57.701736 
L 200.986739 57.862255 
L 201.447846 58.156533 
L 201.701455 58.003617 
L 201.770622 57.935918 
L 201.885898 55.524705 
L 202.185618 55.39824 
L 202.439227 55.558679 
L 202.900335 55.853069 
L 203.153944 55.700235 
L 203.626579 55.397002 
L 203.880188 55.551395 
L 204.352824 55.852505 
L 204.606433 55.696564 
L 205.079068 55.397598 
L 205.332677 55.555076 
L 205.793785 55.853556 
L 206.035866 55.714506 
L 206.531557 55.398258 
L 206.785166 55.558777 
L 207.246273 55.853055 
L 207.499882 55.700138 
L 207.569049 55.632439 
L 207.684326 53.221227 
L 207.984045 53.094761 
L 208.237655 53.2552 
L 208.698762 53.54959 
L 208.952371 53.396757 
L 209.425006 53.093524 
L 209.678616 53.247917 
L 210.151251 53.549027 
L 210.40486 53.393086 
L 210.877495 53.094119 
L 211.131104 53.251598 
L 211.592212 53.550077 
L 211.834293 53.411028 
L 212.329984 53.094779 
L 212.583593 53.255298 
L 213.0447 53.549576 
L 213.29831 53.39666 
L 213.367476 53.328961 
L 213.482753 50.917748 
L 213.782472 50.791283 
L 214.036082 50.951722 
L 214.497189 51.246112 
L 214.750798 51.093278 
L 215.223433 50.790045 
L 215.477043 50.944438 
L 215.949678 51.245548 
L 216.203287 51.089607 
L 216.675922 50.790641 
L 216.929531 50.948119 
L 217.390639 51.246599 
L 217.63272 51.107549 
L 218.128411 50.791301 
L 218.38202 50.95182 
L 218.843127 51.246098 
L 219.096737 51.093181 
L 219.165903 51.025482 
L 219.28118 48.61427 
L 219.5809 48.487804 
L 219.834509 48.648243 
L 220.295616 48.942634 
L 220.549225 48.7898 
L 221.021861 48.486567 
L 221.27547 48.64096 
L 221.748105 48.94207 
L 222.001714 48.786129 
L 222.474349 48.487163 
L 222.727958 48.644641 
L 223.189066 48.94312 
L 223.431147 48.804071 
L 223.926838 48.487823 
L 224.180447 48.648341 
L 224.641555 48.94262 
L 224.895164 48.789703 
L 224.96433 48.722004 
L 225.079607 46.310792 
L 225.379327 46.184326 
L 225.632936 46.344765 
L 226.094043 46.639155 
L 226.347652 46.486321 
L 226.820288 46.183088 
L 227.073897 46.337481 
L 227.546532 46.638592 
L 227.800141 46.482651 
L 228.272776 46.183684 
L 228.526385 46.341162 
L 228.987493 46.639642 
L 229.229574 46.500592 
L 229.725265 46.184344 
L 229.978874 46.344863 
L 230.439982 46.639141 
L 230.693591 46.486225 
L 230.762757 46.418525 
L 230.878034 44.007313 
L 231.177754 43.880848 
L 231.431363 44.041287 
L 231.89247 44.335677 
L 232.146079 44.182843 
L 232.618715 43.87961 
L 232.872324 44.034003 
L 233.344959 44.335113 
L 233.598568 44.179172 
L 234.071203 43.880206 
L 234.324812 44.037684 
L 234.78592 44.336164 
L 235.028001 44.197114 
L 235.523692 43.880866 
L 235.777301 44.041385 
L 236.238409 44.335663 
L 236.492018 44.182746 
L 236.561184 44.115047 
L 236.676461 41.703835 
L 236.976181 41.577369 
L 237.22979 41.737808 
L 237.690897 42.032198 
L 237.944506 41.879365 
L 238.417142 41.576132 
L 238.670751 41.730525 
L 239.143386 42.031635 
L 239.396995 41.875694 
L 239.86963 41.576727 
L 240.12324 41.734206 
L 240.584347 42.032685 
L 240.826428 41.893636 
L 241.322119 41.577387 
L 241.575728 41.737906 
L 242.036836 42.032184 
L 242.290445 41.879268 
L 242.359611 41.811569 
L 242.474888 39.400356 
L 242.774608 39.273891 
L 243.028217 39.43433 
L 243.489324 39.72872 
L 243.742934 39.575886 
L 244.215569 39.272653 
L 244.469178 39.427046 
L 244.941813 39.728156 
L 245.195422 39.572215 
L 245.668057 39.273249 
L 245.921667 39.430727 
L 246.382774 39.729207 
L 246.624856 39.590157 
L 247.120546 39.273909 
L 247.374155 39.434428 
L 247.835263 39.728706 
L 248.088872 39.575789 
L 248.158038 39.50809 
L 248.273315 37.096878 
L 248.573035 36.970412 
L 248.826644 37.130851 
L 249.287751 37.425242 
L 249.541361 37.272408 
L 250.013996 36.969175 
L 250.267605 37.123568 
L 250.74024 37.424678 
L 250.993849 37.268737 
L 251.466485 36.969771 
L 251.720094 37.127249 
L 252.181201 37.425728 
L 252.423283 37.286679 
L 252.918973 36.970431 
L 253.172582 37.130949 
L 253.63369 37.425228 
L 253.887299 37.272311 
L 253.956465 37.204612 
L 254.071742 34.7934 
L 254.371462 34.666934 
L 254.625071 34.827373 
L 255.086179 35.121763 
L 255.339788 34.968929 
L 255.812423 34.665696 
L 256.066032 34.820089 
L 256.538667 35.1212 
L 256.792276 34.965259 
L 257.264912 34.666292 
L 257.518521 34.82377 
L 257.979628 35.12225 
L 258.22171 34.9832 
L 258.7174 34.666952 
L 258.971009 34.827471 
L 259.432117 35.121749 
L 259.685726 34.968833 
L 259.754892 34.901133 
L 259.870169 32.489921 
L 260.169889 32.363456 
L 260.423498 32.523895 
L 260.884606 32.818285 
L 261.138215 32.665451 
L 261.61085 32.362218 
L 261.864459 32.516611 
L 262.337094 32.817721 
L 262.590703 32.66178 
L 263.063339 32.362814 
L 263.316948 32.520292 
L 263.778055 32.818771 
L 264.020137 32.679722 
L 264.515827 32.363474 
L 264.769436 32.523993 
L 265.230544 32.818271 
L 265.484153 32.665354 
L 265.553319 32.597655 
L 265.668596 30.186443 
L 265.968316 30.059977 
L 266.221925 30.220416 
L 266.683033 30.514806 
L 266.936642 30.361973 
L 267.409277 30.05874 
L 267.662886 30.213133 
L 268.135521 30.514243 
L 268.38913 30.358302 
L 268.861766 30.059335 
L 269.115375 30.216813 
L 269.576482 30.515293 
L 269.818564 30.376244 
L 270.314254 30.059995 
L 270.567864 30.220514 
L 271.028971 30.514792 
L 271.28258 30.361876 
L 271.351746 30.294177 
L 271.467023 27.882964 
L 271.766743 27.756499 
L 272.020352 27.916938 
L 272.48146 28.211328 
L 272.735069 28.058494 
L 273.207704 27.755261 
L 273.461313 27.909654 
L 273.933948 28.210764 
L 274.187558 28.054823 
L 274.660193 27.755857 
L 274.913802 27.913335 
L 275.374909 28.211815 
L 275.616991 28.072765 
L 276.112681 27.756517 
L 276.366291 27.917036 
L 276.827398 28.211314 
L 277.081007 28.058397 
L 277.150173 27.990698 
L 277.26545 25.579486 
L 277.56517 25.45302 
L 277.818779 25.613459 
L 278.279887 25.90785 
L 278.533496 25.755016 
L 279.006131 25.451783 
L 279.25974 25.606176 
L 279.732375 25.907286 
L 279.985985 25.751345 
L 280.45862 25.452379 
L 280.712229 25.609857 
L 281.173336 25.908336 
L 281.415418 25.769287 
L 281.911109 25.453039 
L 282.164718 25.613557 
L 282.625825 25.907836 
L 282.879434 25.754919 
L 282.9486 25.68722 
L 283.063877 23.276008 
L 283.363597 23.149542 
L 283.617206 23.309981 
L 284.078314 23.604371 
L 284.331923 23.451537 
L 284.804558 23.148304 
L 285.058167 23.302697 
L 285.530803 23.603808 
L 285.784412 23.447867 
L 286.257047 23.1489 
L 286.510656 23.306378 
L 286.971764 23.604858 
L 287.213845 23.465808 
L 287.709536 23.14956 
L 287.963145 23.310079 
L 288.424252 23.604357 
L 288.677861 23.451441 
L 288.747027 23.383741 
L 288.862304 20.972529 
L 289.162024 20.846063 
L 289.415633 21.006503 
L 289.876741 21.300893 
L 290.13035 21.148059 
L 290.602985 20.844826 
L 290.856594 20.999219 
L 291.32923 21.300329 
L 291.582839 21.144388 
L 292.055474 20.845422 
L 292.309083 21.0029 
L 292.770191 21.301379 
L 293.012272 21.16233 
L 293.507963 20.846082 
L 293.761572 21.006601 
L 294.222679 21.300879 
L 294.476288 21.147962 
L 294.545455 21.080263 
L 294.545455 21.080263 
" clip-path="url(#pf4192c0947)" style="fill: none; stroke: #1f77b4; stroke-width: 1.5; stroke-linecap: square"/>
   </g>
   <g id="patch_3">
    <path d="M 51.023622 115.653543 
L 51.023622 16.327559 
" style="fill: none; stroke: #000000; stroke-width: 0.8; stroke-linejoin: miter; stroke-linecap: square"/>
   </g>
   <g id="patch_4">
    <path d="M 306.141732 115.653543 
L 306.141732 16.327559 
" style="fill: none; stroke: #000000; stroke-width: 0.8; stroke-linejoin: miter; stroke-linecap: square"/>
   </g>
   <g id="patch_5">
    <path d="M 51.023622 115.653543 
L 306.141732 115.653543 
" style="fill: none; stroke: #000000; stroke-width: 0.8; stroke-linejoin: miter; stroke-linecap: square"/>
   </g>
   <g id="patch_6">
    <path d="M 51.023622 16.327559 
L 306.141732 16.327559 
" style="fill: none; stroke: #000000; stroke-width: 0.8; stroke-linejoin: miter; stroke-linecap: square"/>
   </g>
  </g>
  <g id="axes_2">
   <g id="patch_7">
    <path d="M 56.023622 58.183214 
L 142.481282 58.183214 
L 142.481282 21.327559 
L 56.023622 21.327559 
z
" style="fill: #ffffff"/>
   </g>
   <g id="matplotlib.axis_3"/>
   <g id="matplotlib.axis_4"/>
   <g id="line2d_2">
    <path d="M 56.023622 56.455605 
L 57.118752 55.518762 
L 57.695137 55.312258 
L 58.213883 55.365714 
L 58.790267 55.677647 
L 59.654844 56.465288 
L 60.692336 57.36378 
L 61.26872 57.592191 
L 61.787466 57.560035 
L 62.36385 57.268203 
L 63.170789 56.551302 
L 64.323557 55.541506 
L 64.899942 55.317493 
L 65.418688 55.35396 
L 65.995072 55.649897 
L 66.80201 56.36956 
L 67.954779 57.375561 
L 68.531164 57.595162 
L 69.049909 57.554386 
L 69.626294 57.254365 
L 70.433232 56.53199 
L 71.586001 55.529855 
L 72.162385 55.314683 
L 72.681131 55.359765 
L 73.257516 55.663849 
L 74.064454 56.388884 
L 75.217223 57.387083 
L 75.793607 57.59781 
L 76.312353 57.548426 
L 76.888737 57.2403 
L 77.753314 56.455093 
L 78.790806 55.553099 
L 79.36719 55.320537 
L 79.885936 55.348607 
L 80.462321 55.636532 
L 81.269259 56.350771 
L 82.422028 57.364095 
L 82.998412 57.592274 
L 83.517158 57.55989 
L 84.093542 57.267841 
L 84.90048 56.550792 
L 84.958119 56.493307 
L 85.073396 44.88065 
L 86.110888 44.00137 
L 86.687272 43.794866 
L 87.206018 43.848322 
L 87.782402 44.160255 
L 88.646979 44.947896 
L 89.684471 45.846388 
L 90.260855 46.074799 
L 90.779601 46.042643 
L 91.355986 45.750811 
L 92.162924 45.03391 
L 93.315693 44.024114 
L 93.892077 43.800101 
L 94.410823 43.836568 
L 94.987207 44.132505 
L 95.794146 44.852168 
L 96.946914 45.858169 
L 97.523299 46.07777 
L 98.042045 46.036994 
L 98.618429 45.736973 
L 99.425367 45.014598 
L 100.578136 44.012463 
L 101.154521 43.797291 
L 101.673267 43.842373 
L 102.249651 44.146457 
L 103.056589 44.871491 
L 104.209358 45.869691 
L 104.785742 46.080418 
L 105.304488 46.031034 
L 105.880873 45.722908 
L 106.745449 44.937701 
L 107.782941 44.035707 
L 108.359326 43.803145 
L 108.878072 43.831215 
L 109.454456 44.11914 
L 110.261394 44.833379 
L 111.414163 45.846703 
L 111.990547 46.074882 
L 112.509293 46.042498 
L 113.085678 45.750449 
L 113.892616 45.0334 
L 113.950254 44.975915 
L 114.065531 33.363258 
L 115.103023 32.483978 
L 115.679407 32.277474 
L 116.198153 32.33093 
L 116.774538 32.642863 
L 117.639114 33.430504 
L 118.676606 34.328996 
L 119.252991 34.557407 
L 119.771737 34.525251 
L 120.348121 34.233419 
L 121.155059 33.516518 
L 122.307828 32.506722 
L 122.884212 32.282709 
L 123.402958 32.319176 
L 123.979343 32.615113 
L 124.786281 33.334776 
L 125.93905 34.340777 
L 126.515434 34.560378 
L 127.03418 34.519602 
L 127.610564 34.219581 
L 128.417503 33.497206 
L 129.570271 32.495071 
L 130.146656 32.279899 
L 130.665402 32.324981 
L 131.241786 32.629065 
L 132.048724 33.354099 
L 133.201493 34.352299 
L 133.777878 34.563026 
L 134.296624 34.513642 
L 134.873008 34.205516 
L 135.737585 33.420309 
L 136.775076 32.518315 
L 137.351461 32.285753 
L 137.870207 32.313823 
L 138.446591 32.601748 
L 139.253529 33.315987 
L 140.406298 34.329311 
L 140.982683 34.55749 
L 141.501429 34.525106 
L 142.077813 34.233057 
L 142.53892 33.850955 
L 142.53892 33.850955 
" clip-path="url(#pabf9bceb2a)" style="fill: none; stroke: #1f77b4; stroke-width: 1.5; stroke-linecap: square"/>
   </g>
   <g id="patch_8">
    <path d="M 56.023622 58.183214 
L 56.023622 21.327559 
" style="fill: none; stroke: #000000; stroke-width: 0.8; stroke-linejoin: miter; stroke-linecap: square"/>
   </g>
   <g id="patch_9">
    <path d="M 142.481282 58.183214 
L 142.481282 21.327559 
" style="fill: none; stroke: #000000; stroke-width: 0.8; stroke-linejoin: miter; stroke-linecap: square"/>
   </g>
   <g id="patch_10">
    <path d="M 56.023622 58.183214 
L 142.481282 58.183214 
" style="fill: none; stroke: #000000; stroke-width: 0.8; stroke-linejoin: miter; stroke-linecap: square"/>
   </g>
   <g id="patch_11">
    <path d="M 56.023622 21.327559 
L 142.481282 21.327559 
" style="fill: none; stroke: #000000; stroke-width: 0.8; stroke-linejoin: miter; stroke-linecap: square"/>
   </g>
  </g>
 </g>
 <defs>
  <clipPath id="pf4192c0947">
   <rect x="51.023622" y="16.327559" width="255.11811" height="99.325984"/>
  </clipPath>
  <clipPath id="pabf9bceb2a">
   <rect x="56.023622" y="21.327559" width="86.45766" height="36.855654"/>
  </clipPath>
 </defs>
</svg>
