<?xml version="1.0" encoding="UTF-8" standalone="no"?>
<!-- Created with Inkscape (http://www.inkscape.org/) -->
<svg xmlns:dc="http://purl.org/dc/elements/1.1/" xmlns:cc="http://creativecommons.org/ns#" xmlns:rdf="http://www.w3.org/1999/02/22-rdf-syntax-ns#" xmlns:svg="http://www.w3.org/2000/svg" xmlns="http://www.w3.org/2000/svg" xmlns:sodipodi="http://sodipodi.sourceforge.net/DTD/sodipodi-0.dtd" xmlns:inkscape="http://www.inkscape.org/namespaces/inkscape" width="374.23749" height="246.14139" id="svg2" version="1.1" inkscape:version="0.48.1 " sodipodi:docname="DifferentialChordalResistance.svg">
  <defs id="defs4">
    <marker inkscape:stockid="Arrow2Lend" orient="auto" refY="0" refX="0" id="Arrow2Lend" style="overflow:visible">
      <path id="path3781" style="font-size:12px;fill-rule:evenodd;stroke-width:0.625;stroke-linejoin:round" d="M 8.7185878,4.0337352 -2.2072895,0.01601326 8.7185884,-4.0017078 c -1.7454984,2.3720609 -1.7354408,5.6174519 -6e-7,8.035443 z" transform="matrix(-1.1,0,0,-1.1,-1.1,0)" inkscape:connector-curvature="0"/>
    </marker>
    <marker inkscape:stockid="Arrow2Lstart" orient="auto" refY="0" refX="0" id="Arrow2Lstart" style="overflow:visible">
      <path id="path3778" style="font-size:12px;fill-rule:evenodd;stroke-width:0.625;stroke-linejoin:round" d="M 8.7185878,4.0337352 -2.2072895,0.01601326 8.7185884,-4.0017078 c -1.7454984,2.3720609 -1.7354408,5.6174519 -6e-7,8.035443 z" transform="matrix(1.1,0,0,1.1,1.1,0)" inkscape:connector-curvature="0"/>
    </marker>
    <marker inkscape:stockid="Arrow2Lstart" orient="auto" refY="0" refX="0" id="Arrow2Lstart-1" style="overflow:visible">
      <path inkscape:connector-curvature="0" id="path3778-7" style="font-size:12px;fill-rule:evenodd;stroke-width:0.625;stroke-linejoin:round" d="M 8.7185878,4.0337352 -2.2072895,0.01601326 8.7185884,-4.0017078 c -1.7454984,2.3720609 -1.7354408,5.6174519 -6e-7,8.035443 z" transform="matrix(1.1,0,0,1.1,1.1,0)"/>
    </marker>
    <marker inkscape:stockid="Arrow2Lend" orient="auto" refY="0" refX="0" id="Arrow2Lend-4" style="overflow:visible">
      <path inkscape:connector-curvature="0" id="path3781-0" style="font-size:12px;fill-rule:evenodd;stroke-width:0.625;stroke-linejoin:round" d="M 8.7185878,4.0337352 -2.2072895,0.01601326 8.7185884,-4.0017078 c -1.7454984,2.3720609 -1.7354408,5.6174519 -6e-7,8.035443 z" transform="matrix(-1.1,0,0,-1.1,-1.1,0)"/>
    </marker>
    <marker inkscape:stockid="Arrow2Lstart" orient="auto" refY="0" refX="0" id="Arrow2Lstart-6" style="overflow:visible">
      <path inkscape:connector-curvature="0" id="path3778-6" style="font-size:12px;fill-rule:evenodd;stroke-width:0.625;stroke-linejoin:round" d="M 8.7185878,4.0337352 -2.2072895,0.01601326 8.7185884,-4.0017078 c -1.7454984,2.3720609 -1.7354408,5.6174519 -6e-7,8.035443 z" transform="matrix(1.1,0,0,1.1,1.1,0)"/>
    </marker>
    <marker inkscape:stockid="Arrow2Lend" orient="auto" refY="0" refX="0" id="Arrow2Lend-6" style="overflow:visible">
      <path inkscape:connector-curvature="0" id="path3781-4" style="font-size:12px;fill-rule:evenodd;stroke-width:0.625;stroke-linejoin:round" d="M 8.7185878,4.0337352 -2.2072895,0.01601326 8.7185884,-4.0017078 c -1.7454984,2.3720609 -1.7354408,5.6174519 -6e-7,8.035443 z" transform="matrix(-1.1,0,0,-1.1,-1.1,0)"/>
    </marker>
    <marker inkscape:stockid="Arrow2Lstart" orient="auto" refY="0" refX="0" id="marker4623" style="overflow:visible">
      <path inkscape:connector-curvature="0" id="path4625" style="font-size:12px;fill-rule:evenodd;stroke-width:0.625;stroke-linejoin:round" d="M 8.7185878,4.0337352 -2.2072895,0.01601326 8.7185884,-4.0017078 c -1.7454984,2.3720609 -1.7354408,5.6174519 -6e-7,8.035443 z" transform="matrix(1.1,0,0,1.1,1.1,0)"/>
    </marker>
    <marker inkscape:stockid="Arrow2Lend" orient="auto" refY="0" refX="0" id="marker4627" style="overflow:visible">
      <path inkscape:connector-curvature="0" id="path4629" style="font-size:12px;fill-rule:evenodd;stroke-width:0.625;stroke-linejoin:round" d="M 8.7185878,4.0337352 -2.2072895,0.01601326 8.7185884,-4.0017078 c -1.7454984,2.3720609 -1.7354408,5.6174519 -6e-7,8.035443 z" transform="matrix(-1.1,0,0,-1.1,-1.1,0)"/>
    </marker>
    <marker inkscape:stockid="Arrow2Lstart" orient="auto" refY="0" refX="0" id="Arrow2Lstart-64" style="overflow:visible">
      <path inkscape:connector-curvature="0" id="path3778-3" style="font-size:12px;fill-rule:evenodd;stroke-width:0.625;stroke-linejoin:round" d="M 8.7185878,4.0337352 -2.2072895,0.01601326 8.7185884,-4.0017078 c -1.7454984,2.3720609 -1.7354408,5.6174519 -6e-7,8.035443 z" transform="matrix(1.1,0,0,1.1,1.1,0)"/>
    </marker>
    <marker inkscape:stockid="Arrow2Lend" orient="auto" refY="0" refX="0" id="Arrow2Lend-7" style="overflow:visible">
      <path inkscape:connector-curvature="0" id="path3781-3" style="font-size:12px;fill-rule:evenodd;stroke-width:0.625;stroke-linejoin:round" d="M 8.7185878,4.0337352 -2.2072895,0.01601326 8.7185884,-4.0017078 c -1.7454984,2.3720609 -1.7354408,5.6174519 -6e-7,8.035443 z" transform="matrix(-1.1,0,0,-1.1,-1.1,0)"/>
    </marker>
    <marker inkscape:stockid="Arrow2Lstart" orient="auto" refY="0" refX="0" id="marker4623-8" style="overflow:visible">
      <path inkscape:connector-curvature="0" id="path4625-1" style="font-size:12px;fill-rule:evenodd;stroke-width:0.625;stroke-linejoin:round" d="M 8.7185878,4.0337352 -2.2072895,0.01601326 8.7185884,-4.0017078 c -1.7454984,2.3720609 -1.7354408,5.6174519 -6e-7,8.035443 z" transform="matrix(1.1,0,0,1.1,1.1,0)"/>
    </marker>
    <marker inkscape:stockid="Arrow2Lend" orient="auto" refY="0" refX="0" id="marker4627-6" style="overflow:visible">
      <path inkscape:connector-curvature="0" id="path4629-4" style="font-size:12px;fill-rule:evenodd;stroke-width:0.625;stroke-linejoin:round" d="M 8.7185878,4.0337352 -2.2072895,0.01601326 8.7185884,-4.0017078 c -1.7454984,2.3720609 -1.7354408,5.6174519 -6e-7,8.035443 z" transform="matrix(-1.1,0,0,-1.1,-1.1,0)"/>
    </marker>
    <marker inkscape:stockid="Arrow2Lstart" orient="auto" refY="0" refX="0" id="Arrow2Lstart-4" style="overflow:visible">
      <path inkscape:connector-curvature="0" id="path3778-1" style="font-size:12px;fill-rule:evenodd;stroke-width:0.625;stroke-linejoin:round" d="M 8.7185878,4.0337352 -2.2072895,0.01601326 8.7185884,-4.0017078 c -1.7454984,2.3720609 -1.7354408,5.6174519 -6e-7,8.035443 z" transform="matrix(1.1,0,0,1.1,1.1,0)"/>
    </marker>
    <marker inkscape:stockid="Arrow2Lend" orient="auto" refY="0" refX="0" id="Arrow2Lend-0" style="overflow:visible">
      <path inkscape:connector-curvature="0" id="path3781-05" style="font-size:12px;fill-rule:evenodd;stroke-width:0.625;stroke-linejoin:round" d="M 8.7185878,4.0337352 -2.2072895,0.01601326 8.7185884,-4.0017078 c -1.7454984,2.3720609 -1.7354408,5.6174519 -6e-7,8.035443 z" transform="matrix(-1.1,0,0,-1.1,-1.1,0)"/>
    </marker>
    <marker inkscape:stockid="Arrow2Lstart" orient="auto" refY="0" refX="0" id="marker4623-5" style="overflow:visible">
      <path inkscape:connector-curvature="0" id="path4625-3" style="font-size:12px;fill-rule:evenodd;stroke-width:0.625;stroke-linejoin:round" d="M 8.7185878,4.0337352 -2.2072895,0.01601326 8.7185884,-4.0017078 c -1.7454984,2.3720609 -1.7354408,5.6174519 -6e-7,8.035443 z" transform="matrix(1.1,0,0,1.1,1.1,0)"/>
    </marker>
    <marker inkscape:stockid="Arrow2Lend" orient="auto" refY="0" refX="0" id="marker4627-62" style="overflow:visible">
      <path inkscape:connector-curvature="0" id="path4629-1" style="font-size:12px;fill-rule:evenodd;stroke-width:0.625;stroke-linejoin:round" d="M 8.7185878,4.0337352 -2.2072895,0.01601326 8.7185884,-4.0017078 c -1.7454984,2.3720609 -1.7354408,5.6174519 -6e-7,8.035443 z" transform="matrix(-1.1,0,0,-1.1,-1.1,0)"/>
    </marker>
    <marker inkscape:stockid="Arrow2Lend" orient="auto" refY="0" refX="0" id="marker4627-62-0" style="overflow:visible">
      <path inkscape:connector-curvature="0" id="path4629-1-6" style="font-size:12px;fill-rule:evenodd;stroke-width:0.625;stroke-linejoin:round" d="M 8.7185878,4.0337352 -2.2072895,0.01601326 8.7185884,-4.0017078 c -1.7454984,2.3720609 -1.7354408,5.6174519 -6e-7,8.035443 z" transform="matrix(-1.1,0,0,-1.1,-1.1,0)"/>
    </marker>
  </defs>
  <sodipodi:namedview id="base" pagecolor="#ffffff" bordercolor="#666666" borderopacity="1.0" inkscape:pageopacity="0.0" inkscape:pageshadow="2" inkscape:zoom="1.838075" inkscape:cx="189.51373" inkscape:cy="121.16047" inkscape:document-units="px" inkscape:current-layer="layer1" showgrid="false" fit-margin-top="20" fit-margin-left="20" fit-margin-right="20" fit-margin-bottom="20" inkscape:window-width="1216" inkscape:window-height="688" inkscape:window-x="-8" inkscape:window-y="-8" inkscape:window-maximized="1"/>
  <metadata id="metadata7">
    <rdf:RDF>
      <cc:Work rdf:about="">
        <dc:format>image/svg+xml</dc:format>
        <dc:type rdf:resource="http://purl.org/dc/dcmitype/StillImage"/>
        <dc:title/>
      </cc:Work>
    </rdf:RDF>
  </metadata>
  <g inkscape:label="Layer 1" inkscape:groupmode="layer" id="layer1" transform="translate(-786.91307,-77.035278)">
    <text xml:space="preserve" style="font-size:40px;font-style:normal;font-variant:normal;font-weight:normal;font-stretch:normal;line-height:125%;letter-spacing:0px;word-spacing:0px;fill:#000000;fill-opacity:1;stroke:none;font-family:Arial;-inkscape-font-specification:Arial" x="1102.974" y="278.03699" id="text4599-6" sodipodi:linespacing="125%"><tspan sodipodi:role="line" id="tspan4601-7" x="1102.974" y="278.03699" style="font-size:50px;font-style:oblique;-inkscape-font-specification:Arial Oblique">V</tspan></text>
    <text xml:space="preserve" style="font-size:40px;font-style:normal;font-variant:normal;font-weight:normal;font-stretch:normal;line-height:125%;letter-spacing:0px;word-spacing:0px;fill:#000000;fill-opacity:1;stroke:none;font-family:Arial;-inkscape-font-specification:Arial" x="830.98041" y="132.82629" id="text4603-9" sodipodi:linespacing="125%"><tspan sodipodi:role="line" id="tspan4605-1" x="830.98041" y="132.82629" style="font-size:50px;font-style:oblique;-inkscape-font-specification:Arial Oblique">I</tspan></text>
    <path style="fill:none;stroke:#b1007f;stroke-width:7.84740114;stroke-linecap:butt;stroke-linejoin:miter;stroke-miterlimit:4;stroke-opacity:1;stroke-dasharray:none" d="m 817.59685,292.64642 c 0,0 92.72076,-2.67159 154.14774,-16.39651 41.54551,-9.28272 65.55171,-28.3245 74.88931,-47.37308 13.5693,-27.6812 23.7927,-113.21619 23.7927,-113.21619" id="path4834" inkscape:connector-curvature="0" sodipodi:nodetypes="cssc"/>
    <path style="fill:none;stroke:#000078;stroke-width:2;stroke-linecap:butt;stroke-linejoin:miter;stroke-miterlimit:4;stroke-opacity:1;stroke-dasharray:16, 2;stroke-dashoffset:0" d="m 1109.5854,110.64393 -102.3046,191.1725" id="path4978" inkscape:connector-curvature="0"/>
    <path style="fill:none;stroke:#005000;stroke-width:2;stroke-linecap:butt;stroke-linejoin:miter;stroke-miterlimit:4;stroke-opacity:1;stroke-dasharray:16, 2;stroke-dashoffset:0" d="M 1044.372,231.4079 819.11263,291.812" id="path4978-1" inkscape:connector-curvature="0"/>
    <text xml:space="preserve" style="font-size:40px;font-style:normal;font-variant:normal;font-weight:normal;font-stretch:normal;line-height:125%;letter-spacing:0px;word-spacing:0px;fill:#581400;fill-opacity:1;stroke:none;font-family:Arial;-inkscape-font-specification:Arial" x="1051.1263" y="246.67464" id="text4603-9-7" sodipodi:linespacing="125%"><tspan sodipodi:role="line" id="tspan4605-1-0" x="1051.1263" y="246.67464" style="font-style:normal;fill:#581400;fill-opacity:1;-inkscape-font-specification:Arial">A</tspan></text>
    <text xml:space="preserve" style="font-size:40px;font-style:normal;font-variant:normal;font-weight:normal;font-stretch:normal;line-height:125%;letter-spacing:0px;word-spacing:0px;fill:#004e00;fill-opacity:1;stroke:none;font-family:Arial;-inkscape-font-specification:Arial" x="941.09216" y="250.75629" id="text4603-9-9" sodipodi:linespacing="125%"><tspan sodipodi:role="line" id="tspan4605-1-6" x="941.09216" y="250.75629" style="font-style:normal;fill:#004e00;fill-opacity:1;-inkscape-font-specification:Arial">B</tspan></text>
    <text xml:space="preserve" style="font-size:40px;font-style:normal;font-variant:normal;font-weight:normal;font-stretch:normal;line-height:125%;letter-spacing:0px;word-spacing:0px;fill:#000078;fill-opacity:1;stroke:none;font-family:Arial;-inkscape-font-specification:Arial" x="1094.6746" y="161.30049" id="text4603-9-30" sodipodi:linespacing="125%"><tspan sodipodi:role="line" id="tspan4605-1-5" x="1094.6746" y="161.30049" style="font-style:normal;fill:#000078;fill-opacity:1;-inkscape-font-specification:Arial">C</tspan></text>
    <path style="fill:none;stroke:#000000;stroke-width:2.5;stroke-linecap:butt;stroke-linejoin:miter;stroke-miterlimit:4;stroke-opacity:1;stroke-dasharray:none;marker-start:none;marker-mid:none;marker-end:url(#Arrow2Lend)" d="m 816.44672,292.14713 321.38378,0" id="path2985-6" inkscape:connector-curvature="0"/>
    <path style="fill:none;stroke:#000000;stroke-width:2.5;stroke-linecap:butt;stroke-linejoin:miter;stroke-miterlimit:4;stroke-opacity:1;stroke-dasharray:none;marker-start:none;marker-mid:none;marker-end:url(#marker4627-62)" d="m 818.00584,293.60622 0,-192.2256" id="path2985-9-9" inkscape:connector-curvature="0"/>
    <path sodipodi:type="arc" style="color:#000000;fill:#581400;fill-opacity:1;fill-rule:nonzero;stroke:none;stroke-width:2;marker:none;visibility:visible;display:inline;overflow:visible;enable-background:accumulate" id="path4980" sodipodi:cx="260.11905" sodipodi:cy="245.95438" sodipodi:rx="8.9285717" sodipodi:ry="8.9285717" d="m 269.04762,245.95438 a 8.9285717,8.9285717 0 1 1 -17.85714,0 8.9285717,8.9285717 0 1 1 17.85714,0 z" transform="translate(784.16409,-14.531497)"/>
  </g>
</svg>